# xmcd
#
# Track frame offsets: 
#        150
#        24732
#        46268
#        65962
#        85649
#        103720
#        119719
#        146375
#        166486
#        188845
#        209902
#        231876
#        244206
#        267371
#
# Disc length: 3974 seconds
#
# Revision: 0
# Processed by: cddbd v1.5.2PL0 Copyright (c) Steve Scherf et al.
# Submitted via: ExactAudioCopy v0.95b4
#
DISCID=d50f840e
DTITLE=Barbara Hendricks - Magnus Lindgren Quartet - Barbara Sings The
DTITLE=Blues
DYEAR=2008
DGENRE=Blues
TTITLE0=Lady Sings The Blues
TTITLE1=Tell Me More And More (And Then Some)
TTITLE2=Trouble In Mind
TTITLE3=Don't Explain
TTITLE4=My Man
TTITLE5=You've Been A Good Old Wagon
TTITLE6=God Bless The Child
TTITLE7=What A Little Moonlight Can Don [instrumental]
TTITLE8=Billie's Blues - I Love My Man
TTITLE9=Mood Indigo
TTITLE10=Downhearted Blues
TTITLE11=Allhelgonablues [instrumental]
TTITLE12=Strange Fruit
TTITLE13=DATA
EXTD=
EXTT0=
EXTT1=
EXTT2=
EXTT3=
EXTT4=
EXTT5=
EXTT6=
EXTT7=
EXTT8=
EXTT9=
EXTT10=
EXTT11=
EXTT12=
EXTT13=
PLAYORDER=
